<svg width="22" height="31" viewBox="0 0 22 31" fill="none" xmlns="http://www.w3.org/2000/svg">
<path fill-rule="evenodd" clip-rule="evenodd" d="M22 10.85C22 14.537 20.1355 17.7946 17.2857 19.7552V31H13.2223L11 28.808L8.77769 31H4.71429V19.7552C1.86453 17.7946 0 14.537 0 10.85C0 4.85772 4.92487 0 11 0C17.0751 0 22 4.85772 22 10.85ZM18.8571 10.85C18.8571 15.1302 15.3393 18.6 11 18.6C6.66063 18.6 3.14286 15.1302 3.14286 10.85C3.14286 6.5698 6.66063 3.1 11 3.1C15.3393 3.1 18.8571 6.5698 18.8571 10.85ZM7.85714 27.5238L11 24.4238L14.1429 27.524V21.2507C13.147 21.543 12.0921 21.7 11 21.7C9.90786 21.7 8.85296 21.543 7.85714 21.2507V27.5238Z" fill="url(#paint0_linear_7_146)"/>
<path d="M17.144 19.5492L17.0357 19.6238V19.7552V30.75H13.3249L11.1756 28.63L11 28.4568L10.8244 28.63L8.67514 30.75H4.96429V19.7552V19.6238L4.85599 19.5493C2.07035 17.6328 0.25 14.4503 0.25 10.85C0.25 4.99901 5.0597 0.25 11 0.25C16.9403 0.25 21.75 4.99901 21.75 10.85C21.75 14.4503 19.9297 17.6328 17.144 19.5492ZM7.60714 27.5238V28.1216L8.0327 27.7018L11 24.775L13.9673 27.702L14.3929 28.1217V27.524V21.2507V20.9167L14.0724 21.0108C13.0993 21.2965 12.0681 21.45 11 21.45C9.93192 21.45 8.90073 21.2965 7.92756 21.0108L7.60714 20.9167V21.2507V27.5238ZM11 18.85C15.4742 18.85 19.1071 15.2715 19.1071 10.85C19.1071 6.4285 15.4742 2.85 11 2.85C6.5258 2.85 2.89286 6.4285 2.89286 10.85C2.89286 15.2715 6.5258 18.85 11 18.85Z" stroke="black" stroke-opacity="0.09" stroke-width="0.5"/>
<defs>
<linearGradient id="paint0_linear_7_146" x1="20.5" y1="-1.5" x2="-2.5" y2="31" gradientUnits="userSpaceOnUse">
<stop stop-color="#E875F2"/>
<stop offset="1" stop-color="#9F5CBE"/>
</linearGradient>
</defs>
</svg>
